<svg xmlns="http://www.w3.org/2000/svg" xmlns:xlink="http://www.w3.org/1999/xlink" viewBox="0 0 6702.73 1277.37"><defs><style>.cls-1{fill:#fff;}.cls-2{fill:url(#linear-gradient);}.cls-3{font-size:800px;fill:#c9c9c9;font-family:GentiumBookBasic, Gentium Book Basic;}.cls-4{font-size:420px;fill:#474747;font-family:GentiumBasic, Gentium Basic;}</style><linearGradient id="linear-gradient" x1="617.37" y1="20.7" x2="617.37" y2="1216.56" gradientUnits="userSpaceOnUse"><stop offset="0.32" stop-color="#cd9d49"/><stop offset="0.99" stop-color="#875d27"/></linearGradient></defs><title>bgAsset 5</title><g id="Layer_2" data-name="Layer 2"><g id="Layer_2-2" data-name="Layer 2"><g id="Layer_4" data-name="Layer 4"><g id="Layer_5" data-name="Layer 5"><circle class="cls-1" cx="618.63" cy="618.63" r="618.63"/></g><circle class="cls-2" cx="617.37" cy="618.63" r="597.93"/></g><path class="cls-1" d="M1005.57,574.08c-4.84-4-12.37-10-22.58-17v-79.2c0-201.93-163.69-365.63-365.62-365.63h0c-201.93,0-365.63,163.7-365.63,365.63v79.2c-10.21,7-17.74,13-22.58,17A18.15,18.15,0,0,0,222.63,588v94.89a18.15,18.15,0,0,0,6.53,14c11.29,9.4,37.19,29.1,77.52,49.31v9.22c0,24.88,16,45,35.84,45h0c19.79,0,35.84-20.16,35.84-45V527.83c0-24.87-16.05-45-35.84-45h0c-19,0-34.48,18.51-35.75,41.94l-.09,0v-46.9c0-171.59,139.1-310.69,310.69-310.69h0c171.58,0,310.68,139.1,310.68,310.69v46.9l-.08,0c-1.27-23.43-16.79-41.94-35.76-41.94h0c-19.79,0-35.83,20.17-35.83,45V755.4c0,24.88,16,45,35.83,45h0c19.8,0,35.84-20.16,35.84-45v-9.22c40.33-20.21,66.24-39.91,77.52-49.31a18.15,18.15,0,0,0,6.53-14V588A18.15,18.15,0,0,0,1005.57,574.08Z"/><path class="cls-1" d="M489.87,969.71a43.31,43.31,0,0,0,43.3-43.3V441.64a43.3,43.3,0,0,0-43.3-43.29H445.15a43.3,43.3,0,0,0-43.3,43.29V926.41a43.31,43.31,0,0,0,43.3,43.3Zm-71.69-455.1h98.67v10.31H418.18Z"/><path class="cls-1" d="M639.73,969.71A43.3,43.3,0,0,0,683,926.41V441.64a43.29,43.29,0,0,0-43.29-43.29H595a43.29,43.29,0,0,0-43.29,43.29V926.41A43.3,43.3,0,0,0,595,969.71ZM568,514.61H666.7v10.31H568Z"/><path class="cls-1" d="M789.59,969.71a43.3,43.3,0,0,0,43.29-43.3V441.64a43.29,43.29,0,0,0-43.29-43.29H744.86a43.3,43.3,0,0,0-43.3,43.29V926.41a43.31,43.31,0,0,0,43.3,43.3Zm-71.7-455.1h98.67v10.31H717.89Z"/><rect class="cls-1" x="294.5" y="984.69" width="645.74" height="65.25" rx="32.63"/></g><g id="Layer_6" data-name="Layer 6"><text class="cls-3" transform="translate(1492.27 670.42)">audiobookshelf</text><text class="cls-4" transform="translate(1563.61 1128.69)">self-hosted audiobook server</text></g></g></svg>