<?xml version="1.0" encoding="UTF-8" standalone="no"?>
<!-- Generator: Adobe Illustrator 24.0.1, SVG Export Plug-In . SVG Version: 6.00 Build 0)  -->

<svg
   version="1.1"
   id="Layer_1"
   x="0px"
   y="0px"
   viewBox="0 0 7501.0735 1237.1999"
   xml:space="preserve"
   width="7501.0737"
   height="1237.2"
   xmlns="http://www.w3.org/2000/svg"
   xmlns:svg="http://www.w3.org/2000/svg"
   xmlns:rdf="http://www.w3.org/1999/02/22-rdf-syntax-ns#"
   xmlns:cc="http://creativecommons.org/ns#"
   xmlns:dc="http://purl.org/dc/elements/1.1/"><defs
   id="defs104" />
<style
   type="text/css"
   id="style70">
	.st0{fill:#FFFFFF;}
	.st1{fill:url(#SVGID_1_);}
	.st2{fill:#C9C9C9;}
	.st3{font-family:'GentiumBookBasic';}
	.st4{font-size:800px;}
	.st5{fill:#474747;}
	.st6{font-family:'GentiumBasic';}
	.st7{font-size:305px;}
</style>
<title
   id="title72">bgAsset 6</title>
<g
   id="Layer_2_1_">
	<g
   id="Layer_2-2">
		<g
   id="Layer_4">
			<g
   id="Layer_5">
				<circle
   class="st0"
   cx="618.59998"
   cy="618.59998"
   r="618.59998"
   id="circle74" />
			</g>
			
				<linearGradient
   id="SVGID_1_"
   gradientUnits="userSpaceOnUse"
   x1="617.37"
   y1="1257.3"
   x2="617.37"
   y2="61.439899"
   gradientTransform="matrix(1,0,0,-1,0,1278)">
				<stop
   offset="0.32"
   style="stop-color:#CD9D49"
   id="stop77" />
				<stop
   offset="0.99"
   style="stop-color:#875D27"
   id="stop79" />
			</linearGradient>
			<circle
   class="st1"
   cx="617.40002"
   cy="618.59998"
   r="597.90002"
   id="circle82"
   style="fill:url(#SVGID_1_)" />
		</g>
		<path
   class="st0"
   d="m 1005.6,574.1 c -4.8,-4 -12.4,-10 -22.6,-17 V 477.9 C 983,276 819.3,112.3 617.4,112.3 v 0 C 415.5,112.3 251.8,276 251.8,477.9 v 79.2 c -10.2,7 -17.7,13 -22.6,17 -4.1,3.4 -6.5,8.5 -6.5,13.9 v 94.9 c 0,5.4 2.4,10.5 6.5,14 11.3,9.4 37.2,29.1 77.5,49.3 v 9.2 c 0,24.9 16,45 35.8,45 v 0 c 19.8,0 35.8,-20.2 35.8,-45 V 527.8 c 0,-24.9 -16,-45 -35.8,-45 v 0 c -19,0 -34.5,18.5 -35.8,41.9 h -0.1 v -46.9 c 0,-171.6 139.1,-310.7 310.7,-310.7 v 0 C 789,167.2 928,306.3 928,477.9 v 46.9 0 c -1.3,-23.4 -16.8,-41.9 -35.8,-41.9 v 0 c -19.8,0 -35.8,20.2 -35.8,45 v 227.6 c 0,24.9 16,45 35.8,45 v 0 c 19.8,0 35.8,-20.2 35.8,-45 v -9.2 c 40.3,-20.2 66.2,-39.9 77.5,-49.3 4.2,-3.5 6.5,-8.6 6.5,-14 v -95 c 0.1,-5.4 -2.3,-10.5 -6.4,-13.9 z"
   id="path85" />
		<path
   class="st0"
   d="m 489.9,969.7 c 23.9,0 43.3,-19.4 43.3,-43.3 V 441.6 c 0,-23.9 -19.4,-43.3 -43.3,-43.3 h -44.7 c -23.9,0 -43.3,19.4 -43.3,43.3 v 484.8 c 0,23.9 19.4,43.3 43.3,43.3 z M 418.2,514.6 h 98.7 v 10.3 h -98.7 z"
   id="path87" />
		<path
   class="st0"
   d="m 639.7,969.7 c 23.9,0 43.3,-19.4 43.3,-43.3 V 441.6 c 0,-23.9 -19.4,-43.3 -43.3,-43.3 H 595 c -23.9,0 -43.3,19.4 -43.3,43.3 v 484.8 c 0,23.9 19.4,43.3 43.3,43.3 z M 568,514.6 h 98.7 v 10.3 H 568 Z"
   id="path89" />
		<path
   class="st0"
   d="m 789.6,969.7 c 23.9,0 43.3,-19.4 43.3,-43.3 V 441.6 c 0,-23.9 -19.4,-43.3 -43.3,-43.3 h -44.7 c -23.9,0 -43.3,19.4 -43.3,43.3 v 484.8 c 0,23.9 19.4,43.3 43.3,43.3 z M 717.9,514.6 h 98.7 v 10.3 h -98.7 z"
   id="path91" />
		<path
   class="st0"
   d="m 327.1,984.7 h 580.5 c 18,0 32.6,14.6 32.6,32.6 v 0 c 0,18 -14.6,32.6 -32.6,32.6 H 327.1 c -18,0 -32.6,-14.6 -32.6,-32.6 v 0 c 0,-18 14.6,-32.6 32.6,-32.6 z"
   id="path93" />
	</g>
	<g
   id="Layer_6">
		<text
   transform="translate(1492.27,735.42)"
   class="st2 st3 st4"
   id="text96">audiobookshelf</text>
		<text
   id="self-hosted_audiobook_and_podcast_server"
   transform="translate(1492.27,1103.6899)"
   class="st5 st6 st7">self-hosted audiobook and podcast server</text>
	</g>
</g>
<metadata
   id="metadata210"><rdf:RDF><cc:Work
       rdf:about=""><dc:title>bgAsset 6</dc:title></cc:Work></rdf:RDF></metadata></svg>
