<svg version="1.1" id="Layer_1" xmlns="http://www.w3.org/2000/svg" xmlns:xlink="http://www.w3.org/1999/xlink" x="0px" y="0px"
	 viewBox="0 0 1235.7 1235.4" style="enable-background:new 0 0 6702.7 1277.4;" xml:space="preserve">
<style type="text/css">
	.st0{fill:#FFFFFF;}
	.st1{fill:url(#SVGID_1_);}
	.st2{fill:#C9C9C9;}
	.st3{font-family:'GentiumBookBasic';}
	.st4{font-size:800px;}
	.st5{fill:#474747;}
</style>
<title>bgAsset 6</title>
<g id="Layer_2_1_">
	<g id="Layer_2-2">
		<g id="Layer_4">
			<g id="Layer_5">
				<circle class="st0" cx="618.6" cy="618.6" r="618.6"/>
			</g>
			
				<linearGradient id="SVGID_1_" gradientUnits="userSpaceOnUse" x1="617.37" y1="1257.3" x2="617.37" y2="61.4399" gradientTransform="matrix(1 0 0 -1 0 1278)">
				<stop  offset="0.32" style="stop-color:#CD9D49"/>
				<stop  offset="0.99" style="stop-color:#875D27"/>
			</linearGradient>
			<circle class="st1" cx="617.4" cy="618.6" r="597.9"/>
		</g>
		<path class="st0" d="M1005.6,574.1c-4.8-4-12.4-10-22.6-17v-79.2c0-201.9-163.7-365.6-365.6-365.6l0,0
			c-201.9,0-365.6,163.7-365.6,365.6v79.2c-10.2,7-17.7,13-22.6,17c-4.1,3.4-6.5,8.5-6.5,13.9v94.9c0,5.4,2.4,10.5,6.5,14
			c11.3,9.4,37.2,29.1,77.5,49.3v9.2c0,24.9,16,45,35.8,45l0,0c19.8,0,35.8-20.2,35.8-45V527.8c0-24.9-16-45-35.8-45l0,0
			c-19,0-34.5,18.5-35.8,41.9h-0.1v-46.9c0-171.6,139.1-310.7,310.7-310.7l0,0C789,167.2,928,306.3,928,477.9v46.9H928
			c-1.3-23.4-16.8-41.9-35.8-41.9l0,0c-19.8,0-35.8,20.2-35.8,45v227.6c0,24.9,16,45,35.8,45l0,0c19.8,0,35.8-20.2,35.8-45v-9.2
			c40.3-20.2,66.2-39.9,77.5-49.3c4.2-3.5,6.5-8.6,6.5-14V588C1012.1,582.6,1009.7,577.5,1005.6,574.1z"/>
		<path class="st0" d="M489.9,969.7c23.9,0,43.3-19.4,43.3-43.3V441.6c0-23.9-19.4-43.3-43.3-43.3h-44.7
			c-23.9,0-43.3,19.4-43.3,43.3v484.8c0,23.9,19.4,43.3,43.3,43.3L489.9,969.7z M418.2,514.6h98.7v10.3h-98.7V514.6z"/>
		<path class="st0" d="M639.7,969.7c23.9,0,43.3-19.4,43.3-43.3V441.6c0-23.9-19.4-43.3-43.3-43.3H595c-23.9,0-43.3,19.4-43.3,43.3
			v484.8c0,23.9,19.4,43.3,43.3,43.3H639.7z M568,514.6h98.7v10.3H568V514.6z"/>
		<path class="st0" d="M789.6,969.7c23.9,0,43.3-19.4,43.3-43.3V441.6c0-23.9-19.4-43.3-43.3-43.3h-44.7
			c-23.9,0-43.3,19.4-43.3,43.3v484.8c0,23.9,19.4,43.3,43.3,43.3L789.6,969.7z M717.9,514.6h98.7v10.3h-98.7V514.6z"/>
		<path class="st0" d="M327.1,984.7h580.5c18,0,32.6,14.6,32.6,32.6v0c0,18-14.6,32.6-32.6,32.6H327.1c-18,0-32.6-14.6-32.6-32.6v0
			C294.5,999.3,309.1,984.7,327.1,984.7z"/>
	</g>
</g>
</svg>