<?xml version="1.0" encoding="utf-8"?><!-- Uploaded to: SVG Repo, www.svgrepo.com, Generator: SVG Repo Mixer Tools -->
<svg width="800px" height="800px" viewBox="0 0 192 192" xmlns="http://www.w3.org/2000/svg" style="enable-background:new 0 0 192 192" xml:space="preserve"><path fill="#FF9900" d="m129.8 96.1.2-.1c3.5-2.2 4.1-7.1 1.2-10.1-5.8-6.1-16.3-14.5-31.7-16.2-25.1-2.8-42 14.8-45.8 19.2-.4.5-.5 1.3 0 1.8.5.7 1.5.8 2.1.2 4.2-3.6 14.4-11.1 29-11.7 18.1-.7 30.9 9.8 36.7 15.8 2.2 2.3 5.6 2.8 8.3 1.1z"/><path fill="#FF9900" d="M148.8 82.8c3.7-2.2 4.4-7.2 1.5-10.4-8.5-9.5-27.3-26-55.6-26.4-34.4-.3-55.2 23.4-59.7 29-.4.6-.5 1.3-.1 1.9.6.8 1.8.9 2.5.2C42.9 71.5 62.2 54.3 91 56c25.7 1.6 42.1 17.2 49 25.3 2.2 2.7 5.9 3.3 8.8 1.5z"/><path d="m22 88.8 65.2 54.3c4.4 3.7 10.8 3.8 15.3.2L170 90.7" style="fill:none;stroke:#FF9900;stroke-width:12;stroke-linecap:round;stroke-miterlimit:10"/><path fill="#FF9900" d="M109.6 106.9c3.6-2.2 4-7.3.7-10-2.9-2.3-6.8-4.7-11.9-5.7-13.4-2.6-23.6 6.4-26.4 9.2-.5.5-.6 1.2-.3 1.7.4.8 1.4 1 2.1.6 2.4-1.5 6.4-3.4 11.5-3.5 7.8-.2 13.7 3.9 17 7 2 1.8 5 2.1 7.3.7z"/></svg> 