<?xml version="1.0" encoding="UTF-8" standalone="no"?>
<!DOCTYPE svg PUBLIC "-//W3C//DTD SVG 1.1//EN" "http://www.w3.org/Graphics/SVG/1.1/DTD/svg11.dtd">
<svg width="100%" height="100%" viewBox="0 0 1581 1581" version="1.1" xmlns="http://www.w3.org/2000/svg" xmlns:xlink="http://www.w3.org/1999/xlink" xml:space="preserve" xmlns:serif="http://www.serif.com/" style="fill-rule:evenodd;clip-rule:evenodd;stroke-linejoin:round;stroke-miterlimit:2;">
    <g transform="matrix(1,0,0,1,-4471.55,-9488.98)">
        <g transform="matrix(0.887399,0,0,0.887399,718.244,1171.17)">
            <circle cx="5120.33" cy="10264" r="890.771" style="fill:white;"/>
        </g>
        <g id="path314" transform="matrix(4.16667,0,0,4.16667,3984.38,8522.36)">
            <path d="M246.527,523.584C241.806,521.679 241.171,514.32 245.444,511.039C246.467,510.254 246.341,510.122 244.548,510.102C243.401,510.087 242.325,509.656 242.158,509.14C241.991,508.625 241.291,500.947 240.601,492.078C239.911,483.209 238.962,471.903 238.49,466.953L237.633,457.953L233.545,457.454C228.061,456.784 227.509,455.868 227.509,447.426C227.509,439.625 228.227,438.354 233.079,437.566C235.783,437.128 235.831,437.06 235.61,434.036L235.384,430.953L231.072,430.728L226.759,430.503L226.759,423.828L386.509,423.828L386.509,430.578L382.009,430.578C377.537,430.578 377.509,430.592 377.509,432.766C377.509,433.97 377.322,435.442 377.094,436.037C376.785,436.842 377.503,437.23 379.899,437.551C384.754,438.202 385.759,439.92 385.759,447.57C385.759,453.286 385.582,454.073 383.918,455.737C382.504,457.151 381.288,457.578 378.668,457.578C376.793,457.578 375.263,457.831 375.269,458.14C375.303,460.077 371.397,503.577 370.942,506.328C370.461,509.238 370.114,509.734 368.42,509.93L366.455,510.158L368.607,512.31C373.156,516.859 370.162,523.578 363.586,523.578C361.003,523.578 360.061,523.188 358.814,521.601C356.557,518.733 356.743,514.549 359.236,512.055L361.214,510.078L252.126,510.078L254.067,512.385C257.424,516.374 256.406,521.361 251.848,523.266C248.974,524.467 248.748,524.48 246.527,523.584L246.527,523.584ZM236.872,448.39C236.226,441.037 236.179,440.943 233.327,441.217L230.884,441.453L230.66,446.629C230.367,453.396 230.584,453.828 234.281,453.828L237.35,453.828L236.872,448.39ZM382.145,452.14C382.276,451.212 382.271,448.343 382.133,445.765L381.882,441.078L379.321,441.078C377.797,441.078 376.741,441.457 376.713,442.015C376.688,442.531 376.422,445.4 376.122,448.39L375.577,453.828L378.741,453.828C381.452,453.828 381.94,453.586 382.145,452.14L382.145,452.14ZM259.657,416.89C257.329,412.347 247.722,384.745 248.199,383.972C248.838,382.938 253.568,383.228 256.596,384.487C258.129,385.125 260.978,387.213 262.927,389.127L266.469,392.607L267.69,389.685C269.368,385.669 268.642,381.113 264.979,372.667C263.346,368.901 262.009,365.702 262.009,365.559C262.009,365.031 266.222,366.335 268.981,367.717C270.546,368.501 273.171,370.357 274.813,371.84C276.455,373.324 277.979,374.358 278.2,374.137C278.421,373.916 278.788,371.926 279.016,369.714C279.606,364.001 278.071,355.239 275.521,349.765L273.338,345.078L275.736,345.095C279.036,345.117 283.542,347.296 288.745,351.386L293.134,354.835L293.595,347.894C293.848,344.077 294.482,339.266 295.003,337.203C297.012,329.25 302.735,320.283 306.417,319.32C307.661,318.994 307.825,319.2 307.409,320.567C306.407,323.859 306.09,339.537 306.918,344.849C307.381,347.816 308.633,352.599 309.699,355.477C312.217,362.27 318.259,369.521 318.259,365.751C318.259,365.158 319.816,362.399 321.719,359.62C323.622,356.84 325.511,353.613 325.917,352.447C326.324,351.282 326.921,350.328 327.246,350.328C327.57,350.328 328.775,352.775 329.923,355.766C331.664,360.302 332.083,362.784 332.447,370.739L332.884,380.274L335.24,378.779C336.674,377.869 338.651,375.277 340.29,372.159C343.181,366.658 344.94,364.669 345.939,365.773C347.005,366.95 348.259,373.326 348.259,377.568C348.259,379.81 347.717,384.047 347.053,386.984C346.39,389.922 346.042,392.832 346.28,393.451C346.989,395.299 351.945,394.803 356.895,392.389C362.705,389.555 365.901,388.712 365.368,390.154C365.154,390.731 363.916,394.41 362.616,398.328C361.316,402.247 358.651,408.66 356.693,412.578L353.134,419.703L337.179,419.906C324.042,420.072 321.152,419.923 320.82,419.056C320.307,417.72 322.054,413.516 324.832,409.399C327.355,405.661 329.153,401.472 328.51,400.829C328.262,400.581 326.854,401.437 325.381,402.73C322.851,404.952 317.603,407.672 317.003,407.072C316.414,406.483 316.417,394.074 317.006,391.766C317.553,389.62 317.448,389.328 316.126,389.328C314.523,389.328 310.024,393.355 309.986,394.823C309.944,396.434 308.71,393.502 308.172,390.515C307.491,386.734 304.819,379.578 304.087,379.578C303.777,379.578 303.159,381.534 302.715,383.925C302.27,386.316 301.341,389.607 300.65,391.238L299.394,394.203L297.957,391.438C296.552,388.732 293.94,386.329 292.404,386.328C291.949,386.327 291.626,388.555 291.614,391.765C291.603,394.756 291.447,399.735 291.265,402.828C291.083,405.922 291.209,409.246 291.545,410.215C292.097,411.803 291.984,411.928 290.395,411.481C289.426,411.209 287.088,409.319 285.199,407.282C283.31,405.245 281.49,403.578 281.155,403.578C280.82,403.578 280.722,407.291 280.937,411.828L281.328,420.078L261.289,420.078L259.657,416.89Z" style="fill:rgb(72,61,139);fill-rule:nonzero;"/>
        </g>
        <g transform="matrix(1.16459,0,0,1.16459,-742.785,-1815.19)">
            <path d="M5218.36,9745.11C5176.99,9741.09 5135.32,9741.09 5093.95,9745.11L5073.45,9844.87C5033.8,9850.94 4994.93,9861.36 4957.55,9875.93L4889.93,9799.78C4852.09,9816.99 4816,9837.82 4782.18,9861.99L4814.31,9958.63C4783,9983.71 4754.55,10012.2 4729.47,10043.5L4632.83,10011.3C4608.66,10045.2 4587.83,10081.2 4570.62,10119.1L4646.77,10186.7C4632.19,10224.1 4621.78,10263 4615.71,10302.6L4515.95,10323.1C4511.93,10364.5 4511.93,10406.1 4515.95,10447.5L4615.71,10468C4621.78,10507.7 4632.19,10546.5 4646.77,10583.9L4570.62,10651.5C4587.83,10689.4 4608.66,10725.5 4632.83,10759.3L4729.47,10727.2C4754.55,10758.5 4783,10786.9 4814.31,10812L4782.18,10908.6C4816,10932.8 4852.09,10953.6 4889.93,10970.9L4957.55,10894.7C4994.93,10909.3 5033.8,10919.7 5073.45,10925.8L5093.95,11025.5C5135.32,11029.5 5176.99,11029.5 5218.36,11025.5L5238.85,10925.8C5278.51,10919.7 5317.38,10909.3 5354.76,10894.7L5422.38,10970.9C5460.22,10953.6 5496.31,10932.8 5530.13,10908.6L5498,10812C5529.31,10786.9 5557.76,10758.5 5582.84,10727.2L5679.48,10759.3C5703.65,10725.5 5724.48,10689.4 5741.69,10651.5L5665.54,10583.9C5680.11,10546.5 5690.53,10507.7 5696.6,10468L5796.36,10447.5C5800.38,10406.1 5800.38,10364.5 5796.36,10323.1L5696.6,10302.6C5690.53,10263 5680.11,10224.1 5665.54,10186.7L5741.69,10119.1C5724.48,10081.2 5703.65,10045.2 5679.48,10011.3L5582.84,10043.5C5557.76,10012.2 5529.31,9983.71 5498,9958.63L5530.13,9861.99C5496.31,9837.82 5460.22,9816.99 5422.38,9799.78L5354.76,9875.93C5317.38,9861.36 5278.51,9850.94 5238.85,9844.87L5218.36,9745.11ZM5156.15,9906.23C5420.57,9906.23 5635.24,10120.9 5635.24,10385.3C5635.24,10649.7 5420.57,10864.4 5156.15,10864.4C4891.74,10864.4 4677.06,10649.7 4677.06,10385.3C4677.06,10120.9 4891.74,9906.23 5156.15,9906.23Z" style="fill:rgb(72,61,139);"/>
        </g>
    </g>
</svg>
